<mxfile host="app.diagrams.net" agent="Mozilla/5.0 (Macintosh; Intel Mac OS X 10_15_7) AppleWebKit/537.36 (KHTML, like Gecko) Chrome/131.0.0.0 Safari/537.36" version="26.0.4">
  <diagram name="Página-1" id="LfbOlUPe-BQ44imm1VUP">
    <mxGraphModel dx="1781" dy="1714" grid="1" gridSize="10" guides="1" tooltips="1" connect="1" arrows="1" fold="1" page="1" pageScale="1" pageWidth="827" pageHeight="1169" math="0" shadow="0">
      <root>
        <mxCell id="0" />
        <mxCell id="1" parent="0" />
        <mxCell id="S1AVjksew2B80YAE8J_8-24" style="edgeStyle=orthogonalEdgeStyle;rounded=0;orthogonalLoop=1;jettySize=auto;html=1;entryX=-0.007;entryY=0.408;entryDx=0;entryDy=0;entryPerimeter=0;" parent="1" source="S1AVjksew2B80YAE8J_8-13" target="S1AVjksew2B80YAE8J_8-20" edge="1">
          <mxGeometry relative="1" as="geometry" />
        </mxCell>
        <mxCell id="S1AVjksew2B80YAE8J_8-6" style="edgeStyle=orthogonalEdgeStyle;rounded=0;orthogonalLoop=1;jettySize=auto;html=1;entryX=0;entryY=0.5;entryDx=0;entryDy=0;" parent="1" source="S1AVjksew2B80YAE8J_8-4" target="S1AVjksew2B80YAE8J_8-10" edge="1">
          <mxGeometry relative="1" as="geometry">
            <mxPoint x="550" y="430" as="targetPoint" />
          </mxGeometry>
        </mxCell>
        <mxCell id="S1AVjksew2B80YAE8J_8-27" style="edgeStyle=orthogonalEdgeStyle;rounded=0;orthogonalLoop=1;jettySize=auto;html=1;entryX=0;entryY=0.5;entryDx=0;entryDy=0;" parent="1" source="S1AVjksew2B80YAE8J_8-4" target="S1AVjksew2B80YAE8J_8-11" edge="1">
          <mxGeometry relative="1" as="geometry" />
        </mxCell>
        <mxCell id="S1AVjksew2B80YAE8J_8-28" style="edgeStyle=orthogonalEdgeStyle;rounded=0;orthogonalLoop=1;jettySize=auto;html=1;entryX=0;entryY=0.5;entryDx=0;entryDy=0;" parent="1" source="S1AVjksew2B80YAE8J_8-4" target="S1AVjksew2B80YAE8J_8-12" edge="1">
          <mxGeometry relative="1" as="geometry" />
        </mxCell>
        <mxCell id="S1AVjksew2B80YAE8J_8-29" style="edgeStyle=orthogonalEdgeStyle;rounded=0;orthogonalLoop=1;jettySize=auto;html=1;entryX=0;entryY=0.5;entryDx=0;entryDy=0;" parent="1" source="S1AVjksew2B80YAE8J_8-4" target="S1AVjksew2B80YAE8J_8-17" edge="1">
          <mxGeometry relative="1" as="geometry" />
        </mxCell>
        <mxCell id="S1AVjksew2B80YAE8J_8-4" value="Core muito bem definido" style="whiteSpace=wrap;html=1;aspect=fixed;" parent="1" vertex="1">
          <mxGeometry x="390" y="270" width="80" height="80" as="geometry" />
        </mxCell>
        <mxCell id="S1AVjksew2B80YAE8J_8-10" value="Reservas" style="rounded=0;whiteSpace=wrap;html=1;" parent="1" vertex="1">
          <mxGeometry x="670" y="200" width="120" height="60" as="geometry" />
        </mxCell>
        <mxCell id="S1AVjksew2B80YAE8J_8-11" value="Diárias" style="rounded=0;whiteSpace=wrap;html=1;" parent="1" vertex="1">
          <mxGeometry x="670" y="280" width="120" height="60" as="geometry" />
        </mxCell>
        <mxCell id="S1AVjksew2B80YAE8J_8-12" value="Avulso" style="rounded=0;whiteSpace=wrap;html=1;" parent="1" vertex="1">
          <mxGeometry x="670" y="360" width="120" height="60" as="geometry" />
        </mxCell>
        <mxCell id="S1AVjksew2B80YAE8J_8-25" style="edgeStyle=orthogonalEdgeStyle;rounded=0;orthogonalLoop=1;jettySize=auto;html=1;entryX=0;entryY=0.5;entryDx=0;entryDy=0;" parent="1" source="S1AVjksew2B80YAE8J_8-13" target="S1AVjksew2B80YAE8J_8-21" edge="1">
          <mxGeometry relative="1" as="geometry" />
        </mxCell>
        <mxCell id="S1AVjksew2B80YAE8J_8-26" style="edgeStyle=orthogonalEdgeStyle;rounded=0;orthogonalLoop=1;jettySize=auto;html=1;entryX=0;entryY=0.75;entryDx=0;entryDy=0;" parent="1" source="S1AVjksew2B80YAE8J_8-13" target="S1AVjksew2B80YAE8J_8-22" edge="1">
          <mxGeometry relative="1" as="geometry" />
        </mxCell>
        <mxCell id="S1AVjksew2B80YAE8J_8-31" style="edgeStyle=orthogonalEdgeStyle;rounded=0;orthogonalLoop=1;jettySize=auto;html=1;entryX=0;entryY=0.5;entryDx=0;entryDy=0;" parent="1" source="S1AVjksew2B80YAE8J_8-13" target="S1AVjksew2B80YAE8J_8-30" edge="1">
          <mxGeometry relative="1" as="geometry" />
        </mxCell>
        <mxCell id="S1AVjksew2B80YAE8J_8-33" style="edgeStyle=orthogonalEdgeStyle;rounded=0;orthogonalLoop=1;jettySize=auto;html=1;entryX=0;entryY=0.5;entryDx=0;entryDy=0;" parent="1" source="S1AVjksew2B80YAE8J_8-13" target="S1AVjksew2B80YAE8J_8-32" edge="1">
          <mxGeometry relative="1" as="geometry" />
        </mxCell>
        <mxCell id="0AMDwR0oSrzAizVU6Kph-24" style="edgeStyle=orthogonalEdgeStyle;rounded=0;orthogonalLoop=1;jettySize=auto;html=1;entryX=0;entryY=0.5;entryDx=0;entryDy=0;" edge="1" parent="1" source="S1AVjksew2B80YAE8J_8-13" target="S1AVjksew2B80YAE8J_8-19">
          <mxGeometry relative="1" as="geometry" />
        </mxCell>
        <mxCell id="0AMDwR0oSrzAizVU6Kph-27" style="edgeStyle=orthogonalEdgeStyle;rounded=0;orthogonalLoop=1;jettySize=auto;html=1;entryX=0;entryY=0.5;entryDx=0;entryDy=0;" edge="1" parent="1" source="S1AVjksew2B80YAE8J_8-13" target="0AMDwR0oSrzAizVU6Kph-26">
          <mxGeometry relative="1" as="geometry" />
        </mxCell>
        <mxCell id="S1AVjksew2B80YAE8J_8-13" value="Comunicações externas ISOLADAS e INDEPENDENTES" style="whiteSpace=wrap;html=1;aspect=fixed;" parent="1" vertex="1">
          <mxGeometry x="372.5" y="570" width="115" height="115" as="geometry" />
        </mxCell>
        <mxCell id="S1AVjksew2B80YAE8J_8-17" value="Mensalista" style="rounded=0;whiteSpace=wrap;html=1;" parent="1" vertex="1">
          <mxGeometry x="670" y="450" width="120" height="60" as="geometry" />
        </mxCell>
        <mxCell id="S1AVjksew2B80YAE8J_8-18" value="Valeti" style="rounded=0;whiteSpace=wrap;html=1;rotation=90;fillColor=none;strokeColor=#FF9933;strokeWidth=10;fontSize=24;" parent="1" vertex="1">
          <mxGeometry x="66.95" y="650.56" width="1055.47" height="81.87" as="geometry" />
        </mxCell>
        <mxCell id="S1AVjksew2B80YAE8J_8-19" value="Banco de Dados" style="rounded=0;whiteSpace=wrap;html=1;" parent="1" vertex="1">
          <mxGeometry x="680" y="570" width="120" height="60" as="geometry" />
        </mxCell>
        <mxCell id="S1AVjksew2B80YAE8J_8-20" value="Pagarme/Mundipagg" style="rounded=0;whiteSpace=wrap;html=1;" parent="1" vertex="1">
          <mxGeometry x="680" y="655" width="120" height="60" as="geometry" />
        </mxCell>
        <mxCell id="S1AVjksew2B80YAE8J_8-21" value="Veloe" style="rounded=0;whiteSpace=wrap;html=1;" parent="1" vertex="1">
          <mxGeometry x="680" y="735" width="120" height="60" as="geometry" />
        </mxCell>
        <mxCell id="S1AVjksew2B80YAE8J_8-22" value="ConectCar" style="rounded=0;whiteSpace=wrap;html=1;" parent="1" vertex="1">
          <mxGeometry x="680" y="815" width="120" height="60" as="geometry" />
        </mxCell>
        <mxCell id="S1AVjksew2B80YAE8J_8-30" value="Twilio" style="rounded=0;whiteSpace=wrap;html=1;" parent="1" vertex="1">
          <mxGeometry x="680" y="900" width="120" height="60" as="geometry" />
        </mxCell>
        <mxCell id="S1AVjksew2B80YAE8J_8-32" value="SendGrid" style="rounded=0;whiteSpace=wrap;html=1;" parent="1" vertex="1">
          <mxGeometry x="680" y="990" width="120" height="60" as="geometry" />
        </mxCell>
        <mxCell id="S1AVjksew2B80YAE8J_8-36" style="edgeStyle=orthogonalEdgeStyle;rounded=0;orthogonalLoop=1;jettySize=auto;html=1;exitX=0.5;exitY=0;exitDx=0;exitDy=0;entryX=0.5;entryY=1;entryDx=0;entryDy=0;" parent="1" source="S1AVjksew2B80YAE8J_8-34" edge="1" target="S1AVjksew2B80YAE8J_8-37">
          <mxGeometry relative="1" as="geometry">
            <mxPoint x="110" y="100" as="targetPoint" />
          </mxGeometry>
        </mxCell>
        <mxCell id="0AMDwR0oSrzAizVU6Kph-21" style="edgeStyle=orthogonalEdgeStyle;rounded=0;orthogonalLoop=1;jettySize=auto;html=1;" edge="1" parent="1" source="S1AVjksew2B80YAE8J_8-34" target="0AMDwR0oSrzAizVU6Kph-20">
          <mxGeometry relative="1" as="geometry" />
        </mxCell>
        <mxCell id="S1AVjksew2B80YAE8J_8-34" value="Arquitetura Hexagonal" style="shape=hexagon;perimeter=hexagonPerimeter2;whiteSpace=wrap;html=1;fixedSize=1;" parent="1" vertex="1">
          <mxGeometry x="-120" y="390" width="180" height="160" as="geometry" />
        </mxCell>
        <mxCell id="0AMDwR0oSrzAizVU6Kph-3" style="edgeStyle=orthogonalEdgeStyle;rounded=0;orthogonalLoop=1;jettySize=auto;html=1;entryX=0;entryY=0.5;entryDx=0;entryDy=0;" edge="1" parent="1" source="S1AVjksew2B80YAE8J_8-37" target="0AMDwR0oSrzAizVU6Kph-2">
          <mxGeometry relative="1" as="geometry" />
        </mxCell>
        <mxCell id="S1AVjksew2B80YAE8J_8-37" value="Dados" style="rounded=1;whiteSpace=wrap;html=1;" parent="1" vertex="1">
          <mxGeometry x="-90" y="-90" width="120" height="60" as="geometry" />
        </mxCell>
        <mxCell id="S1AVjksew2B80YAE8J_8-38" value="&lt;font style=&quot;font-size: 14px;&quot;&gt;&lt;b style=&quot;&quot;&gt;Domain Valeti&lt;/b&gt;&lt;/font&gt;" style="shape=hexagon;perimeter=hexagonPerimeter2;whiteSpace=wrap;html=1;fixedSize=1;fillColor=#ffe6cc;strokeColor=#FF8000;strokeWidth=10;" parent="1" vertex="1">
          <mxGeometry x="1040" y="350" width="560" height="380" as="geometry" />
        </mxCell>
        <mxCell id="S1AVjksew2B80YAE8J_8-47" style="edgeStyle=orthogonalEdgeStyle;rounded=0;orthogonalLoop=1;jettySize=auto;html=1;entryX=0.5;entryY=0;entryDx=0;entryDy=0;" parent="1" source="S1AVjksew2B80YAE8J_8-39" target="S1AVjksew2B80YAE8J_8-43" edge="1">
          <mxGeometry relative="1" as="geometry" />
        </mxCell>
        <mxCell id="S1AVjksew2B80YAE8J_8-39" value="Reservas" style="rounded=0;whiteSpace=wrap;html=1;" parent="1" vertex="1">
          <mxGeometry x="1270" y="620" width="120" height="60" as="geometry" />
        </mxCell>
        <mxCell id="S1AVjksew2B80YAE8J_8-50" style="edgeStyle=orthogonalEdgeStyle;rounded=0;orthogonalLoop=1;jettySize=auto;html=1;entryX=0.5;entryY=0;entryDx=0;entryDy=0;" parent="1" source="S1AVjksew2B80YAE8J_8-40" target="S1AVjksew2B80YAE8J_8-46" edge="1">
          <mxGeometry relative="1" as="geometry" />
        </mxCell>
        <mxCell id="S1AVjksew2B80YAE8J_8-40" value="Mensalista" style="rounded=0;whiteSpace=wrap;html=1;" parent="1" vertex="1">
          <mxGeometry x="1061" y="510" width="120" height="60" as="geometry" />
        </mxCell>
        <mxCell id="S1AVjksew2B80YAE8J_8-48" style="edgeStyle=orthogonalEdgeStyle;rounded=0;orthogonalLoop=1;jettySize=auto;html=1;entryX=0.5;entryY=1;entryDx=0;entryDy=0;" parent="1" source="S1AVjksew2B80YAE8J_8-41" target="S1AVjksew2B80YAE8J_8-45" edge="1">
          <mxGeometry relative="1" as="geometry" />
        </mxCell>
        <mxCell id="S1AVjksew2B80YAE8J_8-41" value="Avulso" style="rounded=0;whiteSpace=wrap;html=1;" parent="1" vertex="1">
          <mxGeometry x="1460" y="500" width="120" height="60" as="geometry" />
        </mxCell>
        <mxCell id="S1AVjksew2B80YAE8J_8-49" style="edgeStyle=orthogonalEdgeStyle;rounded=0;orthogonalLoop=1;jettySize=auto;html=1;entryX=0.5;entryY=1;entryDx=0;entryDy=0;" parent="1" source="S1AVjksew2B80YAE8J_8-42" target="S1AVjksew2B80YAE8J_8-44" edge="1">
          <mxGeometry relative="1" as="geometry" />
        </mxCell>
        <mxCell id="S1AVjksew2B80YAE8J_8-42" value="Diárias" style="rounded=0;whiteSpace=wrap;html=1;" parent="1" vertex="1">
          <mxGeometry x="1260" y="400" width="120" height="60" as="geometry" />
        </mxCell>
        <mxCell id="S1AVjksew2B80YAE8J_8-63" style="edgeStyle=orthogonalEdgeStyle;rounded=0;orthogonalLoop=1;jettySize=auto;html=1;" parent="1" source="S1AVjksew2B80YAE8J_8-43" target="S1AVjksew2B80YAE8J_8-62" edge="1">
          <mxGeometry relative="1" as="geometry" />
        </mxCell>
        <mxCell id="S1AVjksew2B80YAE8J_8-43" value="PORTS" style="shape=process;whiteSpace=wrap;html=1;backgroundOutline=1;" parent="1" vertex="1">
          <mxGeometry x="1460" y="670" width="120" height="60" as="geometry" />
        </mxCell>
        <mxCell id="S1AVjksew2B80YAE8J_8-44" value="PORTS" style="shape=process;whiteSpace=wrap;html=1;backgroundOutline=1;" parent="1" vertex="1">
          <mxGeometry x="1061" y="350" width="120" height="60" as="geometry" />
        </mxCell>
        <mxCell id="S1AVjksew2B80YAE8J_8-55" style="edgeStyle=orthogonalEdgeStyle;rounded=0;orthogonalLoop=1;jettySize=auto;html=1;entryX=0.5;entryY=1;entryDx=0;entryDy=0;" parent="1" source="S1AVjksew2B80YAE8J_8-45" target="S1AVjksew2B80YAE8J_8-51" edge="1">
          <mxGeometry relative="1" as="geometry" />
        </mxCell>
        <mxCell id="S1AVjksew2B80YAE8J_8-45" value="PORTS" style="shape=process;whiteSpace=wrap;html=1;backgroundOutline=1;" parent="1" vertex="1">
          <mxGeometry x="1460" y="350" width="120" height="60" as="geometry" />
        </mxCell>
        <mxCell id="S1AVjksew2B80YAE8J_8-46" value="PORTS" style="shape=process;whiteSpace=wrap;html=1;backgroundOutline=1;" parent="1" vertex="1">
          <mxGeometry x="1061" y="670" width="120" height="60" as="geometry" />
        </mxCell>
        <mxCell id="S1AVjksew2B80YAE8J_8-51" value="ADAPTER" style="shape=process;whiteSpace=wrap;html=1;backgroundOutline=1;" parent="1" vertex="1">
          <mxGeometry x="1640" y="280" width="120" height="60" as="geometry" />
        </mxCell>
        <mxCell id="S1AVjksew2B80YAE8J_8-53" value="MySQL" style="shape=cylinder3;whiteSpace=wrap;html=1;boundedLbl=1;backgroundOutline=1;size=15;" parent="1" vertex="1">
          <mxGeometry x="1820" y="270" width="60" height="80" as="geometry" />
        </mxCell>
        <mxCell id="S1AVjksew2B80YAE8J_8-56" style="edgeStyle=orthogonalEdgeStyle;rounded=0;orthogonalLoop=1;jettySize=auto;html=1;entryX=0;entryY=0.5;entryDx=0;entryDy=0;entryPerimeter=0;" parent="1" source="S1AVjksew2B80YAE8J_8-51" target="S1AVjksew2B80YAE8J_8-53" edge="1">
          <mxGeometry relative="1" as="geometry" />
        </mxCell>
        <mxCell id="S1AVjksew2B80YAE8J_8-57" value="Interface do Repository" style="text;html=1;align=center;verticalAlign=middle;whiteSpace=wrap;rounded=0;" parent="1" vertex="1">
          <mxGeometry x="1490" y="310" width="60" height="30" as="geometry" />
        </mxCell>
        <mxCell id="S1AVjksew2B80YAE8J_8-58" value="Impl do Repository" style="text;html=1;align=center;verticalAlign=middle;whiteSpace=wrap;rounded=0;" parent="1" vertex="1">
          <mxGeometry x="1710" y="350" width="60" height="30" as="geometry" />
        </mxCell>
        <mxCell id="S1AVjksew2B80YAE8J_8-59" value="MongoDB" style="shape=cylinder3;whiteSpace=wrap;html=1;boundedLbl=1;backgroundOutline=1;size=15;" parent="1" vertex="1">
          <mxGeometry x="1820" y="370" width="60" height="80" as="geometry" />
        </mxCell>
        <mxCell id="S1AVjksew2B80YAE8J_8-60" value="Redis" style="shape=cylinder3;whiteSpace=wrap;html=1;boundedLbl=1;backgroundOutline=1;size=15;" parent="1" vertex="1">
          <mxGeometry x="1820" y="170" width="60" height="80" as="geometry" />
        </mxCell>
        <mxCell id="S1AVjksew2B80YAE8J_8-67" style="edgeStyle=orthogonalEdgeStyle;rounded=0;orthogonalLoop=1;jettySize=auto;html=1;entryX=0;entryY=0.5;entryDx=0;entryDy=0;" parent="1" source="S1AVjksew2B80YAE8J_8-62" target="S1AVjksew2B80YAE8J_8-64" edge="1">
          <mxGeometry relative="1" as="geometry" />
        </mxCell>
        <mxCell id="S1AVjksew2B80YAE8J_8-62" value="ADAPTER" style="shape=process;whiteSpace=wrap;html=1;backgroundOutline=1;" parent="1" vertex="1">
          <mxGeometry x="1630" y="735" width="120" height="60" as="geometry" />
        </mxCell>
        <mxCell id="S1AVjksew2B80YAE8J_8-64" value="Gateway" style="ellipse;whiteSpace=wrap;html=1;" parent="1" vertex="1">
          <mxGeometry x="1810" y="725" width="120" height="80" as="geometry" />
        </mxCell>
        <mxCell id="S1AVjksew2B80YAE8J_8-65" value="Interface do Pagamento" style="text;html=1;align=center;verticalAlign=middle;whiteSpace=wrap;rounded=0;" parent="1" vertex="1">
          <mxGeometry x="1490" y="740" width="60" height="30" as="geometry" />
        </mxCell>
        <mxCell id="S1AVjksew2B80YAE8J_8-66" value="Impl do Pagamento" style="text;html=1;align=center;verticalAlign=middle;whiteSpace=wrap;rounded=0;" parent="1" vertex="1">
          <mxGeometry x="1700" y="695" width="60" height="30" as="geometry" />
        </mxCell>
        <mxCell id="S1AVjksew2B80YAE8J_8-68" value="Pagarme" style="ellipse;whiteSpace=wrap;html=1;" parent="1" vertex="1">
          <mxGeometry x="1810" y="815" width="120" height="80" as="geometry" />
        </mxCell>
        <mxCell id="S1AVjksew2B80YAE8J_8-69" value="Mundipagg" style="ellipse;whiteSpace=wrap;html=1;" parent="1" vertex="1">
          <mxGeometry x="1810" y="910" width="120" height="80" as="geometry" />
        </mxCell>
        <mxCell id="0AMDwR0oSrzAizVU6Kph-16" style="edgeStyle=orthogonalEdgeStyle;rounded=0;orthogonalLoop=1;jettySize=auto;html=1;entryX=0;entryY=0.5;entryDx=0;entryDy=0;" edge="1" parent="1" source="0AMDwR0oSrzAizVU6Kph-2" target="0AMDwR0oSrzAizVU6Kph-4">
          <mxGeometry relative="1" as="geometry" />
        </mxCell>
        <mxCell id="0AMDwR0oSrzAizVU6Kph-17" style="edgeStyle=orthogonalEdgeStyle;rounded=0;orthogonalLoop=1;jettySize=auto;html=1;entryX=0;entryY=0.5;entryDx=0;entryDy=0;" edge="1" parent="1" source="0AMDwR0oSrzAizVU6Kph-2" target="0AMDwR0oSrzAizVU6Kph-5">
          <mxGeometry relative="1" as="geometry" />
        </mxCell>
        <mxCell id="0AMDwR0oSrzAizVU6Kph-18" style="edgeStyle=orthogonalEdgeStyle;rounded=0;orthogonalLoop=1;jettySize=auto;html=1;entryX=0;entryY=0.5;entryDx=0;entryDy=0;" edge="1" parent="1" source="0AMDwR0oSrzAizVU6Kph-2" target="0AMDwR0oSrzAizVU6Kph-6">
          <mxGeometry relative="1" as="geometry" />
        </mxCell>
        <mxCell id="0AMDwR0oSrzAizVU6Kph-19" style="edgeStyle=orthogonalEdgeStyle;rounded=0;orthogonalLoop=1;jettySize=auto;html=1;entryX=0;entryY=0.5;entryDx=0;entryDy=0;" edge="1" parent="1" source="0AMDwR0oSrzAizVU6Kph-2" target="0AMDwR0oSrzAizVU6Kph-7">
          <mxGeometry relative="1" as="geometry" />
        </mxCell>
        <mxCell id="0AMDwR0oSrzAizVU6Kph-2" value="As Camadas definem suas necessidades" style="rounded=1;whiteSpace=wrap;html=1;" vertex="1" parent="1">
          <mxGeometry x="240" y="-90" width="120" height="60" as="geometry" />
        </mxCell>
        <mxCell id="0AMDwR0oSrzAizVU6Kph-4" value="Models" style="rounded=0;whiteSpace=wrap;html=1;" vertex="1" parent="1">
          <mxGeometry x="414" y="-190" width="120" height="60" as="geometry" />
        </mxCell>
        <mxCell id="0AMDwR0oSrzAizVU6Kph-13" style="edgeStyle=orthogonalEdgeStyle;rounded=0;orthogonalLoop=1;jettySize=auto;html=1;entryX=0;entryY=0.5;entryDx=0;entryDy=0;" edge="1" parent="1" source="0AMDwR0oSrzAizVU6Kph-5" target="0AMDwR0oSrzAizVU6Kph-8">
          <mxGeometry relative="1" as="geometry" />
        </mxCell>
        <mxCell id="0AMDwR0oSrzAizVU6Kph-5" value="Entidades" style="rounded=0;whiteSpace=wrap;html=1;" vertex="1" parent="1">
          <mxGeometry x="414" y="-110" width="120" height="60" as="geometry" />
        </mxCell>
        <mxCell id="0AMDwR0oSrzAizVU6Kph-14" style="edgeStyle=orthogonalEdgeStyle;rounded=0;orthogonalLoop=1;jettySize=auto;html=1;entryX=0;entryY=0.5;entryDx=0;entryDy=0;" edge="1" parent="1" source="0AMDwR0oSrzAizVU6Kph-6" target="0AMDwR0oSrzAizVU6Kph-9">
          <mxGeometry relative="1" as="geometry" />
        </mxCell>
        <mxCell id="0AMDwR0oSrzAizVU6Kph-6" value="Views" style="rounded=0;whiteSpace=wrap;html=1;" vertex="1" parent="1">
          <mxGeometry x="414" y="-30" width="120" height="60" as="geometry" />
        </mxCell>
        <mxCell id="0AMDwR0oSrzAizVU6Kph-15" style="edgeStyle=orthogonalEdgeStyle;rounded=0;orthogonalLoop=1;jettySize=auto;html=1;entryX=0;entryY=0.5;entryDx=0;entryDy=0;" edge="1" parent="1" source="0AMDwR0oSrzAizVU6Kph-7" target="0AMDwR0oSrzAizVU6Kph-10">
          <mxGeometry relative="1" as="geometry" />
        </mxCell>
        <mxCell id="0AMDwR0oSrzAizVU6Kph-7" value="DTOs" style="rounded=0;whiteSpace=wrap;html=1;" vertex="1" parent="1">
          <mxGeometry x="414" y="50" width="120" height="60" as="geometry" />
        </mxCell>
        <mxCell id="0AMDwR0oSrzAizVU6Kph-8" value="Domain (Core)" style="rounded=0;whiteSpace=wrap;html=1;" vertex="1" parent="1">
          <mxGeometry x="580" y="-110" width="180" height="60" as="geometry" />
        </mxCell>
        <mxCell id="0AMDwR0oSrzAizVU6Kph-9" value="Service -&amp;gt; Controller" style="rounded=0;whiteSpace=wrap;html=1;" vertex="1" parent="1">
          <mxGeometry x="580" y="-30" width="180" height="60" as="geometry" />
        </mxCell>
        <mxCell id="0AMDwR0oSrzAizVU6Kph-10" value="Controller -&amp;gt; Client" style="rounded=0;whiteSpace=wrap;html=1;" vertex="1" parent="1">
          <mxGeometry x="580" y="50" width="180" height="60" as="geometry" />
        </mxCell>
        <mxCell id="0AMDwR0oSrzAizVU6Kph-11" value="MySQL" style="shape=cylinder3;whiteSpace=wrap;html=1;boundedLbl=1;backgroundOutline=1;size=15;" vertex="1" parent="1">
          <mxGeometry x="640" y="-200" width="60" height="80" as="geometry" />
        </mxCell>
        <mxCell id="0AMDwR0oSrzAizVU6Kph-12" style="edgeStyle=orthogonalEdgeStyle;rounded=0;orthogonalLoop=1;jettySize=auto;html=1;entryX=0;entryY=0.5;entryDx=0;entryDy=0;entryPerimeter=0;" edge="1" parent="1" source="0AMDwR0oSrzAizVU6Kph-4" target="0AMDwR0oSrzAizVU6Kph-11">
          <mxGeometry relative="1" as="geometry" />
        </mxCell>
        <mxCell id="0AMDwR0oSrzAizVU6Kph-22" style="edgeStyle=orthogonalEdgeStyle;rounded=0;orthogonalLoop=1;jettySize=auto;html=1;entryX=0.5;entryY=1;entryDx=0;entryDy=0;" edge="1" parent="1" source="0AMDwR0oSrzAizVU6Kph-20" target="S1AVjksew2B80YAE8J_8-4">
          <mxGeometry relative="1" as="geometry" />
        </mxCell>
        <mxCell id="0AMDwR0oSrzAizVU6Kph-23" style="edgeStyle=orthogonalEdgeStyle;rounded=0;orthogonalLoop=1;jettySize=auto;html=1;entryX=0.5;entryY=0;entryDx=0;entryDy=0;" edge="1" parent="1" source="0AMDwR0oSrzAizVU6Kph-20" target="S1AVjksew2B80YAE8J_8-13">
          <mxGeometry relative="1" as="geometry" />
        </mxCell>
        <mxCell id="0AMDwR0oSrzAizVU6Kph-20" value="Negócio" style="rounded=1;whiteSpace=wrap;html=1;" vertex="1" parent="1">
          <mxGeometry x="170" y="440" width="120" height="60" as="geometry" />
        </mxCell>
        <mxCell id="0AMDwR0oSrzAizVU6Kph-26" value="RabbiMQ" style="rounded=0;whiteSpace=wrap;html=1;" vertex="1" parent="1">
          <mxGeometry x="680" y="1080" width="120" height="60" as="geometry" />
        </mxCell>
      </root>
    </mxGraphModel>
  </diagram>
</mxfile>
